<svg xmlns="http://www.w3.org/2000/svg" style="isolation:isolate" width="144" height="36"><g fill="#FFF" clip-path="url(#a)"><path d="M15.818 18.045L19.413.029h-3.036L12.79 18.045l3.579 17.984h3.036l-3.587-17.984z"/><path d="M3.299 18.045L12.902.029H9.595L0 18.045l9.579 17.984h3.307L3.299 18.045zm26.572 0L26.276.029h-3.028l3.595 18.016-3.587 17.984h3.027l3.588-17.984z"/><path d="M42.661 18.045L33.066.029h-3.307l9.602 18.016-9.586 17.984h3.307l9.579-17.984zm89.284 2.208l3.307-8.304 3.332 8.304h-6.639zm-.927 2.448h8.532l1.598 4.104H144l-7.086-17.496h-3.236l-7.118 17.504h2.804l1.654-4.112zm-7.893-13.392h-2.732v17.504h2.732V9.309zm-8.388 17.504V9.309h-3.811l-5.592 13.544-5.656-13.544h-3.715v17.504h2.684V13.749h.072l5.44 13.064h2.325l5.465-13.112h.047v13.112h2.741zM79.969 9.309v17.504h11.264v-2.496h-8.532v-5.168h7.693v-2.496h-7.693v-4.848h8.46V9.309H79.969zm-7.358 8.8a6.4 6.4 0 0 1-.959 3.432 7.185 7.185 0 0 1-1.27 1.416 6.932 6.932 0 0 1-4.29 1.344h-2.74V11.853h2.756a6.65 6.65 0 0 1 4.29 1.392 6.4 6.4 0 0 1 2.205 4.8m2.876 0a9.173 9.173 0 0 0-1.534-4.968 8.653 8.653 0 0 0-2.996-2.712 10.237 10.237 0 0 0-4.793-1.08H60.62v17.528h5.592a9.69 9.69 0 0 0 6.064-1.92 8.718 8.718 0 0 0 3.195-6.816M54.964 9.309h-2.733v17.504h2.733V9.309z"/></g></svg>